<?xml version="1.0" encoding="utf-8"?>
<svg viewBox="0 0 466.666 800.3" xmlns="http://www.w3.org/2000/svg">
  <path class="cls-1" d="M 140.208 404.287 L 140.328 341.287 L 142.238 341.287 L 144.878 345.797 L 144.878 363.947 C 157.498 351.117 171.878 360.287 177.248 367.137 C 182.618 373.987 181.718 393.387 173.658 401.037 C 165.598 408.687 152.418 409.527 140.218 404.287 L 140.208 404.287 Z M 172.298 394.517 C 167.118 402.237 157.518 404.607 145.188 400.747 L 145.188 369.227 C 158.408 354.687 171.868 363.787 174.558 371.717 C 177.248 379.647 177.488 386.797 172.298 394.517 Z" style="fill-rule: evenodd; fill: rgb(255, 255, 255);"/>
  <path class="cls-1" d="M 203.928 357.507 C 215.858 357.507 225.528 368.717 225.528 382.507 C 225.528 396.297 215.858 407.507 203.928 407.507 C 191.998 407.507 182.328 396.297 182.328 382.507 C 182.328 368.717 191.998 357.507 203.928 357.507 Z M 203.928 362.327 C 213.328 362.327 220.928 371.377 220.928 382.537 C 220.928 393.697 213.308 402.757 203.928 402.757 C 194.548 402.757 186.928 393.757 186.928 382.537 C 186.928 371.317 194.548 362.327 203.928 362.327 Z" style="fill-rule: evenodd; fill: rgb(255, 255, 255);"/>
  <path class="cls-2" d="M 236.928 407.437 L 220.498 407.437 L 240.148 357.707 L 254.418 357.707 L 274.068 406.957 L 258.348 406.957 L 263.348 398.347 L 231.878 398.347 L 236.878 407.427 L 236.928 407.437 Z M 238.118 397.767 L 247.418 370.887 L 255.028 391.207 L 238.118 397.767 Z" style="fill: rgb(237, 28, 36); fill-rule: evenodd;"/>
  <path class="cls-1" d="M 277.208 345.897 C 277.208 349.817 277.208 353.607 277.208 357.387 L 266.388 357.387 L 262.118 361.657 L 276.878 361.657 L 276.878 396.197 C 277.648 402.907 280.628 406.197 286.288 406.997 C 291.948 407.797 295.948 408.107 301.548 405.247 L 301.548 400.027 C 298.078 402.087 293.778 403.027 288.548 402.567 C 284.548 402.167 282.758 399.477 282.758 394.857 L 282.758 361.747 L 298.878 361.747 L 298.878 357.747 L 283.158 357.747 L 283.158 341.437 L 281.528 341.437 C 279.988 342.967 278.738 344.227 277.208 345.897 Z" style="fill-rule: evenodd; fill: rgb(255, 255, 255);"/>
</svg>