<svg width="719" height="293" viewBox="0 0 719 293" fill="none" xmlns="http://www.w3.org/2000/svg">
<path d="M283.627 72.3749C296.712 72.17 309.675 74.9039 321.548 80.3726C333.421 85.8413 343.896 93.9034 352.192 103.957C370.476 125.012 379.618 151.282 379.618 182.767C379.618 214.095 370.476 240.242 352.192 261.206C343.71 271.063 333.178 278.977 321.321 284.404C309.464 289.831 296.564 292.641 283.509 292.641C270.454 292.641 257.554 289.831 245.697 284.404C233.84 278.977 223.308 271.063 214.826 261.206C196.387 240.226 187.168 214.08 187.168 182.767C187.168 151.263 196.387 124.993 214.826 103.957C223.177 93.9071 233.697 85.8508 245.606 80.3841C257.515 74.9174 270.509 72.1802 283.627 72.3749ZM283.627 270.562C293.833 270.697 303.935 268.516 313.163 264.185C322.391 259.854 330.501 253.487 336.876 245.569C350.763 227.517 358.279 205.424 358.261 182.704C358.244 159.984 350.696 137.902 336.781 119.87C330.465 111.885 322.389 105.447 313.173 101.05C303.958 96.6524 293.85 94.4141 283.627 94.5068C273.36 94.3691 263.197 96.5591 253.911 100.91C244.625 105.261 236.46 111.659 230.038 119.617C216.096 137.688 208.54 159.821 208.54 182.588C208.54 205.356 216.096 227.488 230.038 245.56C236.477 253.49 244.648 259.861 253.932 264.191C263.217 268.521 273.371 270.697 283.627 270.552" fill="white"/>
<path d="M635.008 0.06604V71.9291H705.228V90.7967H635.008V219.652C635.008 240.406 636.956 254.045 640.852 260.567C644.748 267.09 655.229 270.345 672.293 270.332C688.078 269.727 703.602 266.13 718.028 259.736V281.877C701.718 288.99 684.131 292.759 666.32 292.957C651.546 293.484 637.007 289.169 624.945 280.68C619.568 276.833 615.236 271.722 612.334 265.805C609.433 259.888 608.053 253.349 608.319 246.772V90.7826H540.842L562.48 71.915H608.319V20.3286L626.572 0.06604H635.008Z" fill="white"/>
<path d="M595.945 291.524H525.049L545.296 252.54H407.788L428.708 291.524H357.391L444.109 73.1169H509.505L595.945 291.524ZM511.539 223.578L477.086 129.551L434.642 248.904L511.539 223.578Z" fill="#ED1C24"/>
<path d="M0 277.683V0H7.31991L20.8958 20.2907L20.9289 101.923C28.9867 92.453 39.0223 84.8372 50.3394 79.6042C61.6566 74.3712 73.9843 71.6464 86.4676 71.6188C104.304 71.182 135.451 80.543 151.637 98.5745C170.283 118.922 180.382 145.586 179.863 173.096C179.863 209.633 170.259 239.792 150.271 261.821C130.283 283.85 102.611 292.506 69.4824 292.506C45.5179 292.585 21.8182 287.529 0 277.683ZM20.9762 125.685L20.56 262.662C35.7094 268.61 51.9428 271.349 68.2198 270.703C93.5463 270.703 119.634 263.028 136.184 244.818C150.748 231.258 160.163 202.785 160.745 174.914C161.464 153.331 154.246 132.226 140.44 115.545C134.223 107.747 126.285 101.473 117.239 97.2054C108.194 92.9381 98.2821 90.792 88.2692 90.9326C64.3802 90.6226 43.1629 97.3909 20.9762 125.685Z" fill="white"/>
</svg>
